<svg width="52" height="45" viewBox="0 0 52 45" fill="none" xmlns="http://www.w3.org/2000/svg">
<path d="M26 5.02342C23.7475 5.02342 21.802 3.62651 21.1031 1.57153C22.4365 1.92855 24.1361 2.14402 26 2.14402C27.8637 2.14402 29.5633 1.92855 30.8965 1.57153C30.198 3.62634 28.2526 5.02342 26 5.02342Z" fill="#FFC700"/>
<path d="M0.0647697 7.55043C0.171749 7.25845 0.394337 7.01833 0.684315 6.88757L10.5983 2.436C12.7071 1.74114 14.8555 1.19227 17.0249 0.791096C17.1013 0.776548 17.1773 0.769531 17.2523 0.769531C17.7893 0.769531 18.2702 1.13014 18.3898 1.65899C19.182 5.05115 22.2692 7.59082 26.0001 7.59082C29.731 7.59082 32.8183 5.05132 33.6103 1.65899C33.7313 1.13014 34.2114 0.769531 34.748 0.769531C34.823 0.769531 34.899 0.776548 34.9754 0.791096C37.1446 1.19227 39.293 1.74114 41.4052 2.436L51.3156 6.8874C51.6074 7.01816 51.8315 7.25828 51.9334 7.55026C52.0388 7.84566 52.0198 8.16451 51.8713 8.44314L47.5674 16.7048C47.3659 17.0969 46.9561 17.3322 46.5226 17.3322C46.4106 17.3322 46.2972 17.3165 46.1852 17.2838L41.405 15.9057V43.6266C41.405 44.2561 40.877 44.7695 40.228 44.7695H11.7717C11.1246 44.7695 10.5981 44.2559 10.5981 43.6266V15.9061L5.81452 17.2841C5.70261 17.3168 5.58929 17.3326 5.47756 17.3326C5.04488 17.3326 4.63666 17.0972 4.43238 16.7051L0.126884 8.44348C-0.0181046 8.16468 -0.0388718 7.84583 0.0647697 7.55043Z" fill="#FFC700"/>
</svg>
