<svg width="20" height="20" viewBox="0 0 20 20" fill="none" xmlns="http://www.w3.org/2000/svg">
<path d="M19.9974 1.23252C19.9961 1.17306 19.9939 1.11361 19.9916 1.05393C19.9892 0.987352 19.9872 0.920994 19.9836 0.854191C19.9768 0.720139 19.9681 0.585419 19.9568 0.450254C19.9388 0.233589 19.767 0.0616817 19.5508 0.0434221C19.4159 0.0320656 19.2819 0.0236038 19.1483 0.0164781C19.0805 0.0129153 19.0134 0.0109112 18.9463 0.00846174C18.8881 0.00645765 18.8296 0.0040082 18.7716 0.00289481C18.6745 0.000668033 18.5781 0 18.4819 0C18.4659 0 18.4496 4.36557e-10 18.4336 0.000222678C16.5163 0.00957513 14.7563 0.481206 12.9794 1.45342C12.948 1.47078 12.9167 1.48704 12.8853 1.50419C12.8742 1.51042 12.8633 1.51577 12.8522 1.522C12.8498 1.52334 12.8478 1.52556 12.8453 1.5269C11.3884 2.34056 9.93398 3.48891 8.42863 4.99733C8.25752 5.16879 8.09019 5.34248 7.92463 5.51706L4.99926 5.73996C4.91371 5.74642 4.83193 5.77759 4.7637 5.82947L0.175432 9.3284C0.0294305 9.43974 -0.0334591 9.62946 0.0174303 9.80605C0.0680975 9.98263 0.221877 10.1098 0.404546 10.1265L4.7097 10.5159L6.07283 11.8818C5.58971 11.9925 5.09749 12.2637 4.67593 12.6859C4.42348 12.9391 4.22081 13.2228 4.07236 13.5328C3.87836 13.9445 3.45236 15.0047 3.00124 16.1272L2.78102 16.6748C2.71435 16.8404 2.75279 17.0299 2.87902 17.1562C2.96391 17.2415 3.07769 17.2867 3.19347 17.2867C3.24924 17.2867 3.30569 17.276 3.35969 17.2542L3.9257 17.0255C5.03682 16.577 6.08639 16.1532 6.49817 15.9588C6.80484 15.811 7.08817 15.6079 7.3404 15.3552C7.76174 14.933 8.03219 14.4397 8.14263 13.9556L9.46531 15.281L9.85398 19.5947C9.87043 19.7778 9.99754 19.9319 10.1738 19.9826C10.2144 19.9944 10.2558 20 10.2967 20C10.4331 20 10.5649 19.937 10.6504 19.8243L14.1418 15.2269C14.1936 15.1585 14.2247 15.0766 14.2311 14.9909L14.4469 12.1462C14.6374 11.9656 14.826 11.7821 15.0129 11.595C16.5194 10.0855 17.6661 8.62742 18.4783 7.16665C18.4792 7.16509 18.4805 7.16376 18.4814 7.1622C18.4854 7.15507 18.4887 7.14817 18.4927 7.14104C18.5299 7.07402 18.5652 7.00699 18.6007 6.93974C19.5356 5.19239 19.9899 3.45818 19.9996 1.57344C19.9999 1.55496 19.9999 1.5367 19.9999 1.51822C20.0003 1.42358 19.9996 1.32827 19.9974 1.23252ZM14.3151 8.32769C13.9647 8.67885 13.4985 8.87258 13.0025 8.87258C12.5067 8.87258 12.0405 8.67908 11.6898 8.32769C10.966 7.60221 10.966 6.42224 11.6898 5.69676C12.414 4.9715 13.5918 4.97194 14.3151 5.69676C14.6658 6.04792 14.8591 6.5151 14.8591 7.01211C14.8591 7.50913 14.666 7.97631 14.3151 8.32769Z" fill="#141414"/>
</svg>
